<?xml version="1.0" standalone="no"?><!DOCTYPE svg PUBLIC "-//W3C//DTD SVG 1.1//EN" "http://www.w3.org/Graphics/SVG/1.1/DTD/svg11.dtd"><svg t="1698583042508" class="icon" viewBox="0 0 1024 1024" version="1.1" xmlns="http://www.w3.org/2000/svg" p-id="2804" xmlns:xlink="http://www.w3.org/1999/xlink" width="200" height="200"><path d="M67.774 72.378h888.452c20.796 0 37.656 16.86 37.656 37.656v397.502c0 20.796-16.86 37.656-37.656 37.656h-131.822l-98.234 76.596-98.234-76.596H67.774c-20.796 0-37.656-16.86-37.656-37.656V110.034c0-20.796 16.86-37.656 37.656-37.656z" fill="#CEE8FA" p-id="2805"></path><path d="M726.17 651.906a30.062 30.062 0 0 1-18.516-6.366l-90.07-70.226H67.774C30.404 575.31 0 544.906 0 507.536V110.034C0 72.664 30.404 42.26 67.774 42.26h888.452C993.596 42.26 1024 72.664 1024 110.034v397.498c0 37.37-30.404 67.776-67.774 67.776h-121.468l-90.07 70.226a30.046 30.046 0 0 1-18.518 6.372zM67.774 102.496a7.548 7.548 0 0 0-7.538 7.538v397.498a7.548 7.548 0 0 0 7.538 7.542h560.162a30.1 30.1 0 0 1 18.516 6.366l79.718 62.154 79.718-62.154a30.116 30.116 0 0 1 18.516-6.366h131.822a7.548 7.548 0 0 0 7.538-7.542V110.034a7.548 7.548 0 0 0-7.538-7.538H67.774zM956.226 981.738H67.774C30.404 981.738 0 951.336 0 913.966v-114.772c0-37.37 30.404-67.774 67.774-67.774h121.468l90.07-70.226a30.116 30.116 0 0 1 37.036 0l90.07 70.226h212.666c16.63 0 30.118 13.486 30.118 30.118 0 16.63-13.486 30.118-30.118 30.118H396.062a30.1 30.1 0 0 1-18.516-6.366l-79.718-62.154-79.716 62.15a30.116 30.116 0 0 1-18.516 6.366H67.774a7.548 7.548 0 0 0-7.538 7.538v114.772a7.548 7.548 0 0 0 7.538 7.538h888.452a7.548 7.548 0 0 0 7.538-7.538v-114.772a7.548 7.548 0 0 0-7.538-7.538h-123.864c-16.63 0-30.118-13.486-30.118-30.118s13.486-30.118 30.118-30.118h123.864c37.37 0 67.774 30.404 67.774 67.774v114.772c0 37.374-30.404 67.776-67.774 67.776z" fill="#2D527C" p-id="2806"></path><path d="M655.664 222.028H143.442c-16.63 0-30.118-13.486-30.118-30.118s13.486-30.118 30.118-30.118h512.222c16.63 0 30.118 13.486 30.118 30.118 0 16.63-13.484 30.118-30.118 30.118zM399.552 452.258H143.442c-16.63 0-30.118-13.486-30.118-30.118s13.486-30.118 30.118-30.118h256.112c16.63 0 30.118 13.486 30.118 30.118s-13.486 30.118-30.12 30.118zM825.214 337.14H143.442c-16.63 0-30.118-13.486-30.118-30.118s13.486-30.118 30.118-30.118h681.774c16.63 0 30.118 13.486 30.118 30.118s-13.486 30.118-30.12 30.118z" fill="#2D527C" p-id="2807"></path></svg>