<?xml version="1.0" standalone="no"?><!DOCTYPE svg PUBLIC "-//W3C//DTD SVG 1.1//EN" "http://www.w3.org/Graphics/SVG/1.1/DTD/svg11.dtd"><svg t="1698582973430" class="icon" viewBox="0 0 1024 1024" version="1.1" xmlns="http://www.w3.org/2000/svg" p-id="2224" xmlns:xlink="http://www.w3.org/1999/xlink" width="200" height="200"><path d="M992.686 648.196h-280.28c-17.294 0-31.314-14.02-31.314-31.314s14.02-31.314 31.314-31.314h248.966V62.628h-522.94v214.522c0 17.294-14.02 31.314-31.314 31.314s-31.314-14.02-31.314-31.314V31.314C375.804 14.02 389.822 0 407.118 0h585.568C1009.98 0 1024 14.02 1024 31.314v585.568c0 17.296-14.02 31.314-31.314 31.314z" fill="#2D527C" p-id="2225"></path><path d="M460.846 1024H31.314C14.02 1024 0 1009.98 0 992.686V407.118c0-17.294 14.02-31.314 31.314-31.314h585.568c17.294 0 31.314 14.02 31.314 31.314v397.666c0 17.294-14.02 31.314-31.314 31.314s-31.314-14.02-31.314-31.314V438.432H62.628v522.942h398.218c17.294 0 31.314 14.02 31.314 31.314 0 17.292-14.02 31.312-31.314 31.312z" fill="#2D527C" p-id="2226"></path><path d="M219.216 219.216v187.902h397.666v397.666h187.902V219.216z" fill="#CEE8FA" p-id="2227"></path><path d="M804.784 836.098h-187.902c-17.294 0-31.314-14.02-31.314-31.314V438.432H219.216c-17.294 0-31.314-14.02-31.314-31.314v-187.902c0-17.294 14.02-31.314 31.314-31.314h585.568c17.294 0 31.314 14.02 31.314 31.314v585.568c0 17.294-14.02 31.314-31.314 31.314z m-156.588-62.628h125.274v-522.94h-522.94v125.274h366.354c17.294 0 31.314 14.02 31.314 31.314v366.352z" fill="#2D527C" p-id="2228"></path></svg>