<?xml version="1.0" standalone="no"?><!DOCTYPE svg PUBLIC "-//W3C//DTD SVG 1.1//EN" "http://www.w3.org/Graphics/SVG/1.1/DTD/svg11.dtd"><svg t="1698585995054" class="icon" viewBox="0 0 1024 1024" version="1.1" xmlns="http://www.w3.org/2000/svg" p-id="2224" xmlns:xlink="http://www.w3.org/1999/xlink" width="200" height="200"><path d="M634.512 778.7c-99.752 0-199.472-37.958-275.412-113.894-11.468-11.468-11.468-30.064 0-41.534 11.468-11.466 30.064-11.466 41.534 0 128.96 128.964 338.792 128.964 467.756 0 63.416-63.412 97.814-147.732 96.856-237.426a331.794 331.794 0 0 0-12.708-87.558c-4.452-15.596 4.584-31.848 20.182-36.298 15.6-4.456 31.848 4.584 36.298 20.182a390.584 390.584 0 0 1 14.96 103.052c1.124 105.616-39.382 204.906-114.056 279.582C834 740.728 734.24 778.7 634.512 778.7zM288.23 517.94c-12.784 0-24.542-8.41-28.224-21.318-38.832-136.058-0.86-282.678 99.096-382.638 151.864-151.858 398.956-151.858 550.82 0 11.468 11.468 11.468 30.064 0 41.534-11.468 11.464-30.064 11.464-41.534 0-128.964-128.964-338.796-128.964-467.756 0-84.888 84.888-117.134 209.418-84.148 324.986 4.452 15.596-4.584 31.848-20.182 36.298a29.318 29.318 0 0 1-8.072 1.138z" fill="#2D527C" p-id="2225"></path><path d="M465.934 557.974c-92.954-92.954-92.954-244.2 0-337.154s244.2-92.954 337.154 0 92.954 244.2 0 337.154-244.2 92.952-337.154 0z" fill="#CEE8FA" p-id="2226"></path><path d="M634.512 657.056c-71.598 0-138.84-27.814-189.342-78.316-50.502-50.502-78.316-117.744-78.316-189.342s27.814-138.84 78.316-189.346c50.502-50.502 117.744-78.316 189.342-78.316 71.594 0 138.84 27.814 189.342 78.316s78.316 117.748 78.316 189.346-27.814 138.836-78.316 189.342c-50.504 50.502-117.748 78.316-189.342 78.316z m0-476.586c-55.91 0-108.4 21.706-147.812 61.116-39.41 39.41-61.116 91.904-61.116 147.812 0 55.906 21.706 108.4 61.114 147.808 39.41 39.41 91.902 61.116 147.812 61.116 55.906 0 108.4-21.706 147.812-61.116 39.41-39.408 61.114-91.902 61.114-147.808 0-55.91-21.702-108.4-61.114-147.812-39.41-39.412-91.904-61.116-147.81-61.116zM306.438 746.836a29.288 29.288 0 0 1-20.766-8.602c-11.468-11.468-11.47-30.064 0-41.534l71.15-71.154c11.468-11.466 30.064-11.466 41.532 0 11.468 11.468 11.47 30.064 0 41.534l-71.15 71.154a29.274 29.274 0 0 1-20.766 8.602z" fill="#2D527C" p-id="2227"></path><path d="M116.022 1023.908a29.288 29.288 0 0 1-20.766-8.602L8.602 928.652C3.096 923.144 0 915.674 0 907.886s3.096-15.256 8.602-20.766l230.322-230.324a29.372 29.372 0 0 1 41.532 0l86.654 86.656c11.468 11.468 11.468 30.064 0 41.534L136.786 1015.31a29.294 29.294 0 0 1-20.764 8.598z m-45.124-116.022l45.122 45.122 188.79-188.79-45.122-45.122-188.79 188.79z" fill="#2D527C" p-id="2228"></path></svg>